<?xml version="1.0" encoding="utf-8"?>
<!-- Svg Vector Icons : http://www.onlinewebfonts.com/icon -->
<!DOCTYPE svg PUBLIC "-//W3C//DTD SVG 1.1//EN" "http://www.w3.org/Graphics/SVG/1.1/DTD/svg11.dtd">
<svg version="1.1" xmlns="http://www.w3.org/2000/svg" xmlns:xlink="http://www.w3.org/1999/xlink" x="0px" y="0px" viewBox="0 0 1000 1000" enable-background="new 0 0 1000 1000" xml:space="preserve">
<metadata> Svg Vector Icons : http://www.onlinewebfonts.com/icon </metadata>
<g><path d="M49.3,874.7c0,0-29.4-156.9,269.2-422.2v-99.1l-154-269.2c0,0,20.1-17.6,134.3-55V10.1h57.6v19.2c0,0,85.2,111.2,115.2,115.3c30,4.1,112.1-97.8,122.5-114.2V10h57.1v19.4c0,0,94.6,30.7,133.5,53.8c0,0-111.4,203.9-152.9,270.3v101.2c0,0,217.8,61.3,319.8,420c-30,36.5-96,57.6-96,57.6H710.7c0,0-53.1-1.2-143.1,57.6H433.2c0,0-149.7-102.2-326.4-57.6C106.8,932.4,80.2,921.8,49.3,874.7z"/></g>
</svg>